<svg width="512" height="512" viewBox="0 0 512 512" fill="none" xmlns="http://www.w3.org/2000/svg">
<g clip-path="url(#clip0_13_76)">
<rect width="512" height="512" fill="white"/>
<path d="M369.398 81.0539C371.457 77.4118 370.29 72.7282 366.79 70.5928L309.756 35.793C306.256 33.6576 301.749 34.8789 299.69 38.5209C297.631 42.1629 298.798 46.8465 302.298 48.982L352.995 79.9151L323.166 132.671C321.107 136.313 322.275 140.997 325.774 143.132C329.274 145.268 333.781 144.046 335.84 140.404L369.398 81.0539ZM65.2114 383.705C115.635 375.596 148.304 355.481 171.668 328.642C194.756 302.12 208.348 269.433 221.37 237.448C234.546 205.085 247.17 173.362 268.185 146.334C288.967 119.604 318.176 97.2481 364.905 84.5844L361.217 69.7901C311.481 83.2686 279.544 107.422 256.754 136.733C234.196 165.746 220.821 199.597 207.829 231.506C194.683 263.795 181.937 294.079 160.772 318.392C139.883 342.388 110.386 360.973 62.9852 368.595L65.2114 383.705Z" fill="#E8B636"/>
<path d="M136.966 424.362C134.562 427.769 135.267 432.552 138.54 435.046L191.877 475.686C195.15 478.18 199.751 477.44 202.155 474.033C204.559 470.626 203.854 465.843 200.581 463.349L153.171 427.225L187.988 377.878C190.391 374.472 189.687 369.688 186.414 367.194C183.141 364.701 178.539 365.441 176.135 368.847L136.966 424.362ZM144.005 436.432C194.429 428.324 227.098 408.209 250.462 381.37C273.55 354.847 287.142 322.16 300.164 290.176C313.34 257.813 325.964 226.09 346.978 199.061C367.761 172.332 396.97 149.976 443.699 137.312L440.01 122.518C390.275 135.996 358.338 160.15 335.548 189.461C312.99 218.474 299.615 252.324 286.623 284.234C273.477 316.522 260.731 346.806 239.566 371.12C218.677 395.116 189.18 413.701 141.779 421.323L144.005 436.432Z" fill="#E8B636"/>
<path d="M196.398 -33.231C198.457 -36.8731 197.29 -41.5567 193.79 -43.6921L136.756 -78.4919C133.256 -80.6273 128.749 -79.406 126.69 -75.764C124.631 -72.122 125.798 -67.4384 129.298 -65.3029L179.995 -34.3698L150.166 18.3861C148.107 22.0281 149.275 26.7117 152.774 28.8472C156.274 30.9827 160.781 29.7614 162.84 26.1193L196.398 -33.231ZM-107.789 269.42C-57.3651 261.311 -24.6957 241.196 -1.33179 214.357C21.7558 187.835 35.3477 155.148 48.37 123.163C61.5464 90.8005 74.1696 59.0775 95.1845 32.0488C115.967 5.31884 145.176 -17.0368 191.905 -29.7005L188.217 -44.4948C138.481 -31.0163 106.544 -6.86319 83.7539 22.4482C61.1964 51.4609 47.8212 85.3118 34.8293 117.221C21.6833 149.51 8.93677 179.794 -12.228 204.107C-33.1166 228.103 -62.6137 246.688 -110.015 254.31L-107.789 269.42Z" fill="#E8B636"/>
<path d="M-36.0338 310.077C-38.4374 313.484 -37.7326 318.267 -34.4596 320.761L18.8768 361.401C22.1498 363.895 26.7516 363.155 29.1553 359.748C31.5589 356.341 30.8541 351.558 27.5811 349.064L-19.8291 312.94L14.9881 263.593C17.3917 260.187 16.6869 255.403 13.414 252.91C10.141 250.416 5.53916 251.156 3.13554 254.562L-36.0338 310.077ZM-28.9944 322.147C21.4291 314.039 54.0985 293.924 77.4624 267.085C100.55 240.562 114.142 207.875 127.164 175.891C140.341 143.528 152.964 111.805 173.979 84.7765C194.761 58.0466 223.971 35.691 270.7 23.0273L267.011 8.233C217.275 21.7115 185.338 45.8646 162.548 75.176C139.991 104.189 126.615 138.04 113.623 169.949C100.477 202.237 87.731 232.521 66.5661 256.835C45.6776 280.831 16.1805 299.416 -31.2206 307.038L-28.9944 322.147Z" fill="#E8B636"/>
<path d="M539.398 194.769C541.457 191.127 540.29 186.443 536.79 184.308L479.756 149.508C476.256 147.373 471.749 148.594 469.69 152.236C467.631 155.878 468.798 160.562 472.298 162.697L522.995 193.63L493.166 246.386C491.107 250.028 492.275 254.712 495.774 256.847C499.274 258.983 503.781 257.761 505.84 254.119L539.398 194.769ZM235.211 497.42C285.635 489.311 318.304 469.196 341.668 442.357C364.756 415.835 378.348 383.148 391.37 351.163C404.546 318.8 417.17 287.077 438.185 260.049C458.967 233.319 488.176 210.963 534.905 198.299L531.217 183.505C481.481 196.984 449.544 221.137 426.754 250.448C404.196 279.461 390.821 313.312 377.829 345.221C364.683 377.51 351.937 407.794 330.772 432.107C309.883 456.103 280.386 474.688 232.985 482.31L235.211 497.42Z" fill="#E8B636"/>
<path d="M306.966 538.077C304.562 541.484 305.267 546.267 308.54 548.761L361.877 589.401C365.15 591.895 369.751 591.155 372.155 587.748C374.559 584.341 373.854 579.558 370.581 577.064L323.171 540.94L357.988 491.593C360.391 488.187 359.687 483.403 356.414 480.91C353.141 478.416 348.539 479.156 346.135 482.562L306.966 538.077ZM314.005 550.147C364.429 542.039 397.098 521.924 420.462 495.085C443.55 468.562 457.142 435.875 470.164 403.891C483.34 371.528 495.964 339.805 516.978 312.777C537.761 286.047 566.97 263.691 613.699 251.027L610.01 236.233C560.275 249.711 528.338 273.865 505.548 303.176C482.99 332.189 469.615 366.04 456.623 397.949C443.477 430.237 430.731 460.521 409.566 484.835C388.677 508.831 359.18 527.416 311.779 535.038L314.005 550.147Z" fill="#E8B636"/>
</g>
<defs>
<clipPath id="clip0_13_76">
<rect width="512" height="512" fill="white"/>
</clipPath>
</defs>
</svg>
